<svg id="eb1b09ad-1fe0-40ca-8096-34696e14e30a" xmlns="http://www.w3.org/2000/svg" viewBox="0 0 710 510.81"><defs><style>.cls-1{fill:#3f3d56;}.cls-2{fill:#f2f2f2;}.cls-3,.cls-7{fill:#6c63ff;}.cls-4{fill:#ff6584;}.cls-5{fill:#e6e6e6;}.cls-6{fill:#fff;}.cls-7{opacity:0.2;}.cls-10,.cls-7{isolation:isolate;}.cls-8{fill:#2f2e41;}.cls-9{fill:#ffb9b9;}.cls-10{opacity:0.1;}</style></defs><title>undraw_unlock_242mb</title><path class="cls-1" d="M860.45,619.05q-54.88-8-105.55-13.86l13.35-21.62c-4.5-1.33-24.29,11-24.29,11l17.54-62.84c-22.65,2.18-34.18,66.38-34.18,66.38L702,576.26l12.25,24.48c-103.39-10.67-192.69-14.87-267.8-15.35l11.43-18.5c-4.5-1.33-24.29,11-24.29,11L451.15,515C428.5,517.22,417,581.42,417,581.42l-25.3-21.84,13,25.92c-63,.77-114.31,4.13-153.94,8,11.56-28.85,50.84-56.16,50.84-56.16-30,7.33-45.73,19.77-54,31.4-.63-35.69,3.6-101.84,35-174.95,0,0-62,112.66-54.11,188.51l.94,13.47c-52.56,6.06-79,12.49-79,12.49Z" transform="translate(-150.45 -108.24)"/><path class="cls-1" d="M528,128.7V584a20.48,20.48,0,0,1-20.46,20.45H322.69A20.42,20.42,0,0,1,302.24,584V128.7a20.44,20.44,0,0,1,20.45-20.46h27.66v3.54a16.84,16.84,0,0,0,16.85,16.85h94A16.84,16.84,0,0,0,478,111.78v-3.54h29.48A20.46,20.46,0,0,1,528,128.68Z" transform="translate(-150.45 -108.24)"/><circle class="cls-2" cx="203.28" cy="75.85" r="4.92"/><path class="cls-3" d="M472.84,124a16.85,16.85,0,0,1-1.65,1.39A87.93,87.93,0,0,0,528,167.62v-2.19A85.91,85.91,0,0,1,472.84,124Z" transform="translate(-150.45 -108.24)"/><path class="cls-3" d="M430.84,128.63h-2.31A127.58,127.58,0,0,0,528,208v-2.17A125.4,125.4,0,0,1,430.84,128.63Z" transform="translate(-150.45 -108.24)"/><path class="cls-3" d="M388.4,128.63h-2.22A168.23,168.23,0,0,0,528,248.82v-2.14A166.11,166.11,0,0,1,388.4,128.63Z" transform="translate(-150.45 -108.24)"/><polygon class="cls-2" points="187.12 112.25 185.84 112.25 185.84 110.97 185.59 110.97 185.59 112.25 184.31 112.25 184.31 112.5 185.59 112.5 185.59 113.78 185.84 113.78 185.84 112.5 187.12 112.5 187.12 112.25"/><polygon class="cls-2" points="273.51 48.34 272.23 48.34 272.23 47.06 271.98 47.06 271.98 48.34 270.7 48.34 270.7 48.59 271.98 48.59 271.98 49.87 272.23 49.87 272.23 48.59 273.51 48.59 273.51 48.34"/><polygon class="cls-2" points="199.77 162.82 198.49 162.82 198.49 161.54 198.24 161.54 198.24 162.82 196.96 162.82 196.96 163.07 198.24 163.07 198.24 164.35 198.49 164.35 198.49 163.07 199.77 163.07 199.77 162.82"/><polygon class="cls-2" points="258.76 125.6 257.48 125.6 257.48 124.32 257.24 124.32 257.24 125.6 255.96 125.6 255.96 125.85 257.24 125.85 257.24 127.13 257.48 127.13 257.48 125.85 258.76 125.85 258.76 125.6"/><polygon class="cls-2" points="343.05 148.77 341.77 148.77 341.77 147.49 341.52 147.49 341.52 148.77 340.24 148.77 340.24 149.02 341.52 149.02 341.52 150.3 341.77 150.3 341.77 149.02 343.05 149.02 343.05 148.77"/><circle class="cls-4" cx="328.3" cy="87.79" r="2.81"/><path class="cls-5" d="M378.1,261.91l-1.6.25c.5,3.19.89,6.45,1.18,9.67l1.61-.14C379,268.42,378.6,265.14,378.1,261.91Z" transform="translate(-150.45 -108.24)"/><path class="cls-5" d="M373.73,242.71l-1.54.47c.93,3.09,1.77,6.26,2.48,9.41l1.58-.36C375.53,249.05,374.68,245.84,373.73,242.71Z" transform="translate(-150.45 -108.24)"/><path class="cls-5" d="M366.77,224.29l-1.46.68c1.34,2.94,2.61,6,3.75,9l1.51-.57C369.42,230.33,368.14,227.27,366.77,224.29Z" transform="translate(-150.45 -108.24)"/><path class="cls-5" d="M357.36,207l-1.36.86c1.73,2.73,3.4,5.55,4.94,8.38l1.42-.77C360.8,212.64,359.12,209.78,357.36,207Z" transform="translate(-150.45 -108.24)"/><path class="cls-5" d="M345.66,191.21l-1.23,1c2.1,2.46,4.13,5,6.06,7.63l1.29-1C349.84,196.29,347.78,193.69,345.66,191.21Z" transform="translate(-150.45 -108.24)"/><path class="cls-5" d="M331.91,177.12l-1.08,1.2c2.42,2.15,4.79,4.42,7,6.73l1.16-1.13C336.75,181.58,334.35,179.29,331.91,177.12Z" transform="translate(-150.45 -108.24)"/><path class="cls-5" d="M316.37,165l-.9,1.34c2.68,1.8,5.34,3.73,7.88,5.71l1-1.27C321.77,168.79,319.08,166.85,316.37,165Z" transform="translate(-150.45 -108.24)"/><path class="cls-5" d="M302.24,156.62v1.83c1.67.88,3.34,1.8,5,2.74l.81-1.4C306.12,158.69,304.19,157.64,302.24,156.62Z" transform="translate(-150.45 -108.24)"/><path class="cls-5" d="M377.73,413.62c.26-1.57.5-3.17.71-4.76l1.6.21c-.21,1.61-.45,3.23-.72,4.82Z" transform="translate(-150.45 -108.24)"/><path class="cls-5" d="M373.23,432.57l1.54.48c1-3.12,1.85-6.32,2.61-9.5l-1.58-.37C375.05,426.33,374.19,429.48,373.23,432.57Z" transform="translate(-150.45 -108.24)"/><path class="cls-5" d="M366.18,450.71l1.46.69c1.4-2.95,2.7-6,3.88-9l-1.5-.59C368.85,444.78,367.56,447.79,366.18,450.71Z" transform="translate(-150.45 -108.24)"/><path class="cls-5" d="M356.69,467.73l1.35.88c1.79-2.74,3.5-5.58,5.1-8.43l-1.41-.79C360.15,462.21,358.45,465,356.69,467.73Z" transform="translate(-150.45 -108.24)"/><path class="cls-5" d="M345,483.28l1.22,1.06c2.15-2.47,4.23-5,6.21-7.66l-1.3-1C349.14,478.29,347.07,480.84,345,483.28Z" transform="translate(-150.45 -108.24)"/><path class="cls-5" d="M331.2,497.08l1.06,1.22c2.47-2.16,4.89-4.43,7.19-6.74l-1.14-1.15C336,492.7,333.64,494.94,331.2,497.08Z" transform="translate(-150.45 -108.24)"/><path class="cls-5" d="M315.71,508.87l.89,1.35c2.73-1.8,5.44-3.72,8-5.69l-1-1.29C321.08,505.2,318.41,507.1,315.71,508.87Z" transform="translate(-150.45 -108.24)"/><path class="cls-5" d="M308.2,515.36c-1.95,1.1-3.95,2.17-6,3.18v-1.82c1.74-.88,3.46-1.81,5.16-2.76Z" transform="translate(-150.45 -108.24)"/><path class="cls-5" d="M378.2,281.79l1.62,0c0,1.63,0,3.27,0,4.87l-1.62,0C378.24,285,378.23,283.4,378.2,281.79Z" transform="translate(-150.45 -108.24)"/><path class="cls-6" d="M309.33,320.09h165.2a46.35,46.35,0,0,1,46.35,46.35v6.14H355.68a46.35,46.35,0,0,1-46.35-46.35h0v-6.14Z" transform="translate(-150.45 -108.24)"/><path class="cls-2" d="M419,603.76c-.17-.26-4-6.61-5.28-19.79-1.21-12.08-.44-32.46,10.13-60.89,20-53.85-4.61-97.3-4.86-97.73l1.21-.7c.07.11,6.42,11.18,10.18,28.82a125.81,125.81,0,0,1-5.21,70.1c-20,53.76-5.13,79.21-5,79.46Z" transform="translate(-150.45 -108.24)"/><circle class="cls-3" cx="260.69" cy="304.82" r="9.13"/><circle class="cls-2" cx="289.49" cy="338.53" r="9.13"/><circle class="cls-3" cx="269.82" cy="361.01" r="9.13"/><circle class="cls-3" cx="293.7" cy="379.97" r="9.13"/><circle class="cls-2" cx="262.8" cy="409.47" r="9.13"/><path class="cls-2" d="M424.48,604.1s-9.13-22.48,18.26-39.33Z" transform="translate(-150.45 -108.24)"/><path class="cls-2" d="M413.25,603.69s-4.15-23.9-36.32-23.7Z" transform="translate(-150.45 -108.24)"/><circle class="cls-7" cx="226.46" cy="238.1" r="56.19"/><circle class="cls-7" cx="226.46" cy="238.1" r="39.57"/><circle class="cls-3" cx="226.46" cy="238.1" r="26.12"/><path class="cls-6" d="M381.65,340.7a4.75,4.75,0,1,0-7.75,3.68l-1.75,12.24h9.5l-1.75-12.24A4.73,4.73,0,0,0,381.65,340.7Z" transform="translate(-150.45 -108.24)"/><path class="cls-8" d="M639.36,145.67s-15.67-14-36.73,12.43-54,39.43-61.58,49.69c0,0,31.33-13,42.13-18.37s10.27-4.32,10.27-4.32-14.59,10.27-17.29,20.53-.54,18.9-5.4,29.16,92.9,7,92.9,7,9.73-16.75,7-34S669.6,147.83,639.36,145.67Z" transform="translate(-150.45 -108.24)"/><path class="cls-9" d="M609.73,189.85s3.41,23.85-11.19,29.2-9.25,12.65-9.25,12.65l21.9,10.7,23.36-7.3,7.78-11.67s-12.65-2.92-9.24-11.68,4.38-11.68,4.38-11.68Z" transform="translate(-150.45 -108.24)"/><path class="cls-10" d="M609.73,189.85s3.41,23.85-11.19,29.2-9.25,12.65-9.25,12.65l21.9,10.7,23.36-7.3,7.78-11.67s-12.65-2.92-9.24-11.68,4.38-11.68,4.38-11.68Z" transform="translate(-150.45 -108.24)"/><path class="cls-9" d="M671,258s-3.41,44.77-2.43,46.72,0,69.58,0,69.58,6.81,36.49-2,38.44-6.81-40.88-6.81-40.88l-8.76-56.44,1-56Z" transform="translate(-150.45 -108.24)"/><path class="cls-10" d="M671,258s-3.41,44.77-2.43,46.72,0,69.58,0,69.58,6.81,36.49-2,38.44-6.81-40.88-6.81-40.88l-8.76-56.44,1-56Z" transform="translate(-150.45 -108.24)"/><path class="cls-9" d="M576.16,392.76s-16.06,60.82-15.57,90.5,6.81,71,6.81,71,1,18-.49,20,7.3,10.22,7.3,10.22l9.24-5.35,3.41-3.89v-3.41s-5.35-16.54-1-29.68,6.81-46.23,2.43-56.45l30.17-89.53Z" transform="translate(-150.45 -108.24)"/><path class="cls-8" d="M575.18,576.69s-5.84-7.3-9.73-4.87-10.22,19-10.22,19-21.89,20.92-6.32,21.89,22.38-4.38,24.33-8.27,20-14.11,20-14.11-2-18.49-4.87-19-7.3,7.3-7.3,7.3Z" transform="translate(-150.45 -108.24)"/><path class="cls-9" d="M629.19,396.65V457a188.44,188.44,0,0,0,1.46,21.89c1.46,10.71-8.27,90.51-8.27,90.51l1,14.11,12.17-1L637,570.36l17.52-53.52s5.83-32.61,2.91-44.77,15.09-90,15.09-90Z" transform="translate(-150.45 -108.24)"/><path class="cls-8" d="M619.46,580.09l3.61-.78s2.72-6,6.12-4.57A36.13,36.13,0,0,1,636,578.8l1.5,2.75a58.08,58.08,0,0,0,7.78,12.17c4.38,4.86,9.25,15.57,2,16.54s-17,1.46-20-1-1-6.33-3.9-7.3-5.35-3.9-4.86-4.87S619.46,580.09,619.46,580.09Z" transform="translate(-150.45 -108.24)"/><circle class="cls-9" cx="478.75" cy="76.75" r="21.63"/><path class="cls-3" d="M588.32,222.94l6.43-2.24s-2.54,4.19,11.09,6.62,27.73,3.29,34.06-4.68c0,0,2.43-1.16,5.84,2.25s5.35,2.43,5.35,2.43L648.66,240l-4.87,23.36-6.32,17.51-18-3.89L600,262.84l-7.3-19V226.35Z" transform="translate(-150.45 -108.24)"/><path class="cls-3" d="M647.68,229.75l4.87-3.4s16.54,2.92,17.52,10.7l-12.66,24.33a27.66,27.66,0,0,1-.48,20.92c-4.87,11.19-4.38,13.63-4.38,13.63l-3.41,14.59-61.79,4.87s-2.44-5.84-3.41-6.81-1-4.38,0-4.38,0-1.46-1-2.92-1.46-1.95,0-3.89-2.43-19.47-2.43-19.47V259L564,237.05s5.84-8.76,8.76-9.73,16.81-4.81,16.81-4.81l3.14,4.63,4.38,35.21,6.32,21.41L630,279.24l10.34-17.37,6.82-20.44Z" transform="translate(-150.45 -108.24)"/><path class="cls-3" d="M666.17,234.13l3.9,2.92s3.4,27.25,2.43,29.2-18,3.89-18.49,2.92S666.17,234.13,666.17,234.13Z" transform="translate(-150.45 -108.24)"/><path class="cls-8" d="M585.89,220.51l4.86,32.11s-4.38,47.69-3.4,57.42l1,2.92s-2-1-2.43,1,0,8.27,0,8.27-2.92,2.92-3.9,19-12.65,54.5-8.27,56,30.66,8.75,44.77,7.3S683.2,386,682.72,381.57s-24.82-66.18-24.82-66.18-4.38-7.3-4.38-8.27,5.84-4.87,4.38-8.76-9.24-44.77-9.24-44.77L654,224.4l-7.3-2-5.35,28.23s-20.93,10.21-42.82,1l-4.87-33.09Z" transform="translate(-150.45 -108.24)"/><path class="cls-8" d="M609.3,169.47s36,24.81,45.74,13.62-17-20.92-17-20.92l-22.39-2.43Z" transform="translate(-150.45 -108.24)"/><path class="cls-3" d="M553.35,433.46a19,19,0,1,0-6-7.4l-49.66,41.35-6.62-7.84-3,2-3.3-3.92,2.71-2.29-3.3-3.92L480,455l2,2.41-4.53,3.82-2-2.42-6.64,5.6,3.06,3.62,2.41-2,3.31,3.93-3,2.54,6.1,7.24-7.24,6.11,7.37,8.75Zm12.4-27.74a12.56,12.56,0,1,1-13.58,11.44,12.56,12.56,0,0,1,13.58-11.44Z" transform="translate(-150.45 -108.24)"/><path class="cls-9" d="M560.59,263.81s3.4,44.77,2.43,46.71,0,69.59,0,69.59-6.81,36.49,1.94,38.44,6.82-40.88,6.82-40.88l8.76-56.44-1-56Z" transform="translate(-150.45 -108.24)"/><path class="cls-3" d="M567.88,235.59,564,237.05s-7.3,30.66-5.35,30.66,25.3,2.92,25.3,1.94-4.38-24.81-4.38-24.81Z" transform="translate(-150.45 -108.24)"/></svg>